<svg id="Layer_1" data-name="Layer 1" xmlns="http://www.w3.org/2000/svg" width="168.13" height="100" viewBox="0 0 168.13 100">
  <defs>
    <style>
      .cls-1 {
        fill: #03354c;
      }

      .cls-2 {
        fill: #f97254;
      }
    </style>
  </defs>
  <g>
    <g>
      <path class="cls-1" d="M0,85.7l6.63-4.64c.24-.17.34-.16.53.07a8.75,8.75,0,0,0,6.77,3.17A9.63,9.63,0,0,0,17.18,84a3.11,3.11,0,0,0,1-5.6,14.64,14.64,0,0,0-3.8-1.83c-1.86-.68-3.77-1.21-5.57-2A16.5,16.5,0,0,1,4.34,71.6,10.2,10.2,0,0,1,1.2,64.29,12.06,12.06,0,0,1,2,59.07a9.7,9.7,0,0,1,5.5-5.33,17.21,17.21,0,0,1,5.93-1.23,22.15,22.15,0,0,1,7.85.92,13.2,13.2,0,0,1,7.05,5c.2.28.15.39-.11.57-2.08,1.47-4.16,3-6.22,4.45-.24.17-.35.21-.53-.09a6.32,6.32,0,0,0-5.3-3.14,9.45,9.45,0,0,0-3.27.17A3.14,3.14,0,0,0,10.84,65a4.11,4.11,0,0,0,1.57,1.5,20.07,20.07,0,0,0,4.8,1.89A29.18,29.18,0,0,1,23.69,71a9.72,9.72,0,0,1,5.12,8.69,12.93,12.93,0,0,1-.95,5.8A10.14,10.14,0,0,1,21.78,91a16.86,16.86,0,0,1-5.49,1,28.21,28.21,0,0,1-7.88-.76A15.26,15.26,0,0,1,.23,86c-.06-.08-.1-.2-.23-.23Z"/>
      <path class="cls-1" d="M95.65,70.36v.4q0,10.11,0,20.22c0,.36-.06.49-.46.49-2.63,0-5.26,0-7.88,0-.28,0-.38,0-.38-.36q0-18.85,0-37.72c0-.29.07-.35.35-.35h6.63a.64.64,0,0,1,.61.33q6.85,10.38,13.73,20.75l.29.42V74q0-10.29,0-20.57c0-.37.09-.44.45-.44h7.84c.31,0,.43,0,.43.4q0,18.83,0,37.64c0,.33-.09.39-.4.39h-6.74a.58.58,0,0,1-.55-.3L95.93,70.66l-.21-.31Z"/>
      <path class="cls-1" d="M63.75,53l-4,5.51c-2.38,3.25-4.75,6.5-7.14,9.74a.45.45,0,0,0,0,.59Q59,80,65.52,91.06a.83.83,0,0,1,.18.39H55.05a.54.54,0,0,1-.54-.33L46.58,77l-.15-.25c-.15,0-.19.18-.27.28-1,1.32-1.93,2.64-2.91,4a1,1,0,0,0-.19.59c0,3.15,0,6.29,0,9.43,0,.36-.11.42-.44.42H34.15c-.28,0-.35-.06-.35-.35q0-18.85,0-37.72c0-.31.1-.36.38-.36h8.53c.3,0,.37.08.36.37,0,4.46,0,8.92,0,13.37v.38c.15,0,.17-.13.22-.21q4.74-6.8,9.46-13.6a.62.62,0,0,1,.58-.31H63.75Z"/>
      <path class="cls-1" d="M79.73,72.29q0,9.38,0,18.75c0,.35-.1.42-.44.42H70.85c-.29,0-.4,0-.4-.38q0-18.84,0-37.68c0-.3.08-.37.38-.37h8.52c.33,0,.39.1.39.4Q79.73,62.86,79.73,72.29Z"/>
    </g>
    <g>
      <path class="cls-2" d="M116.8,25.65A25.67,25.67,0,1,1,142.32,51.3,25.69,25.69,0,0,1,116.8,25.65Zm.91,0a24.75,24.75,0,1,0,25-24.75A24.74,24.74,0,0,0,117.71,25.67Z"/>
      <path class="cls-2" d="M125.9,25.63a16.56,16.56,0,1,1,16.54,16.58A16.58,16.58,0,0,1,125.9,25.63ZM142.44,34a7.31,7.31,0,0,0,1.48-.08c2.43-.33,4.41-1.66,4.61-4.52a4.47,4.47,0,0,0-2.44-4.76A17.41,17.41,0,0,0,143,23.43a5.9,5.9,0,0,1-2-.91,1.41,1.41,0,0,1-.52-1.48,1.2,1.2,0,0,1,1-1c1.19-.3,3-.22,3.82,1.16.11.18.2.22.38.08.83-.61,1.68-1.21,2.53-1.8.22-.16.2-.28.05-.48a5.55,5.55,0,0,0-2.31-1.79,9.23,9.23,0,0,0-6.26-.3,4.22,4.22,0,0,0-3.19,3.49,4.72,4.72,0,0,0,1.75,4.92,10.2,10.2,0,0,0,2.94,1.45,11.78,11.78,0,0,1,2.55,1,1.41,1.41,0,0,1,.76,1.55,1.34,1.34,0,0,1-1.2,1.11,4.21,4.21,0,0,1-4.19-1.19c-.13-.15-.23-.19-.41-.06-.86.62-1.73,1.23-2.6,1.83-.17.12-.16.2,0,.35a6.66,6.66,0,0,0,1.66,1.43A9.2,9.2,0,0,0,142.44,34Z"/>
    </g>
    <rect class="cls-2" x="1.72" y="99.09" width="116.09" height="0.91"/>
  </g>
</svg>
