<svg xmlns="http://www.w3.org/2000/svg" viewBox="0 0 180 180" fill="none" role="img" aria-label="Meneer Marketing">
  <rect width="180" height="180" rx="40" fill="#0F172A"/>
  <g transform="translate(24 22) scale(2.1)">
    <ellipse cx="14.7" cy="42" rx="2.9" ry="3.4" fill="#F6C09A" stroke="#1F2430" stroke-width="1.3"/>
    <ellipse cx="49.3" cy="42" rx="2.9" ry="3.4" fill="#F6C09A" stroke="#1F2430" stroke-width="1.3"/>
    <ellipse cx="32" cy="41" rx="17" ry="16.6" fill="#F8CBA3" stroke="#1F2430" stroke-width="1.5"/>
    <ellipse cx="26.4" cy="36.4" rx="5.8" ry="7.4" fill="#fff" stroke="#1F2430" stroke-width="1.3"/>
    <ellipse cx="37.6" cy="36.4" rx="5.8" ry="7.4" fill="#fff" stroke="#1F2430" stroke-width="1.3"/>
    <circle cx="26.4" cy="36.4" r="2.2" fill="#1F2430"/>
    <circle cx="37.6" cy="36.4" r="2.2" fill="#1F2430"/>
    <ellipse cx="32" cy="43.6" rx="3.3" ry="2.3" fill="#F2B285" stroke="#1F2430" stroke-width="1.2"/>
    <path d="M23.2 48.6C25.4 45.6 29.6 45.9 32 47.9C34.4 45.9 38.6 45.6 40.8 48.6C40 51.3 36.1 52.2 32 50.3C27.9 52.2 24 51.3 23.2 48.6Z" fill="#1F2430"/>
    <path d="M19 24.6a13 12.2 0 0 1 26 0v0.9h-26z" fill="#1F2430"/>
    <rect x="19.8" y="20.7" width="24.4" height="4" fill="#FF5722"/>
    <rect x="11.5" y="23.8" width="41" height="4.4" rx="2.2" fill="#1F2430"/>
  </g>
</svg>
